<svg width="100" height="100" viewBox="0 0 100 100" fill="none"
  xmlns="http://www.w3.org/2000/svg">
  <!-- Zapatilla de baile -->
  <path d="M20 60c5-10 15-15 25-12 8 2 15 8 18 16 2 5 1 12-2 16-4 5-12 7-18 5-8-3-15-10-18-18-2-5-1-10 2-14 3-4 8-6 13-3z"
    fill="#d7c2ff" stroke="#5a2ea6" stroke-width="4"/>
  <path d="M25 55l5 10M30 50l3 8" stroke="#5a2ea6" stroke-width="3" stroke-linecap="round"/>
  <!-- Notas musicales -->
  <circle cx="70" cy="30" r="8" fill="#b28aff" stroke="#5a2ea6" stroke-width="3"/>
  <path d="M70 38v25M75 35v20" stroke="#5a2ea6" stroke-width="4" stroke-linecap="round"/>
  <path d="M75 55l8-5" stroke="#5a2ea6" stroke-width="3" stroke-linecap="round"/>
</svg>
