<svg width="100" height="100" viewBox="0 0 100 100" fill="none" xmlns="http://www.w3.org/2000/svg">
  <circle cx="50" cy="50" r="45" fill="#8B7EC8" stroke="white" stroke-width="3"/>
  <rect x="15" y="15" width="15" height="15" fill="#B8A9E8" stroke="white" stroke-width="1"/>
  <rect x="35" y="15" width="15" height="15" fill="#D4C5F4" stroke="white" stroke-width="1"/>
  <rect x="55" y="15" width="15" height="15" fill="#B8A9E8" stroke="white" stroke-width="1"/>
  <rect x="75" y="15" width="15" height="15" fill="#8B7EC8" stroke="white" stroke-width="1"/>
  <rect x="15" y="35" width="15" height="15" fill="#D4C5F4" stroke="white" stroke-width="1"/>
  <rect x="35" y="35" width="15" height="15" fill="#8B7EC8" stroke="white" stroke-width="1"/>
  <rect x="55" y="35" width="15" height="15" fill="#B8A9E8" stroke="white" stroke-width="1"/>
  <rect x="75" y="35" width="15" height="15" fill="#D4C5F4" stroke="white" stroke-width="1"/>
  <rect x="15" y="55" width="15" height="15" fill="#B8A9E8" stroke="white" stroke-width="1"/>
  <rect x="35" y="55" width="15" height="15" fill="#D4C5F4" stroke="white" stroke-width="1"/>
  <rect x="55" y="55" width="15" height="15" fill="#8B7EC8" stroke="white" stroke-width="1"/>
  <rect x="75" y="55" width="15" height="15" fill="#B8A9E8" stroke="white" stroke-width="1"/>
  <rect x="15" y="75" width="15" height="15" fill="#8B7EC8" stroke="white" stroke-width="1"/>
  <rect x="35" y="75" width="15" height="15" fill="#B8A9E8" stroke="white" stroke-width="1"/>
  <rect x="55" y="75" width="15" height="15" fill="#D4C5F4" stroke="white" stroke-width="1"/>
  <rect x="75" y="75" width="15" height="15" fill="#8B7EC8" stroke="white" stroke-width="1"/>
  <circle cx="50" cy="50" r="8" fill="#4A3A6E" stroke="white" stroke-width="2"/>
</svg>

