<svg width="100" height="100" viewBox="0 0 100 100" fill="none" xmlns="http://www.w3.org/2000/svg">
  <circle cx="50" cy="50" r="8" fill="#4A3A6E" stroke="white" stroke-width="2"/>
  <path d="M50 20 L52 45 L50 50 L48 45 Z" fill="#D4C5F4" stroke="white" stroke-width="1.5"/>
  <path d="M50 20 L52 45 L50 50 L48 45 Z" fill="#D4C5F4" stroke="white" stroke-width="1.5" transform="rotate(30 50 50)"/>
  <path d="M50 20 L52 45 L50 50 L48 45 Z" fill="#D4C5F4" stroke="white" stroke-width="1.5" transform="rotate(60 50 50)"/>
  <path d="M50 20 L52 45 L50 50 L48 45 Z" fill="#D4C5F4" stroke="white" stroke-width="1.5" transform="rotate(90 50 50)"/>
  <path d="M50 20 L52 45 L50 50 L48 45 Z" fill="#D4C5F4" stroke="white" stroke-width="1.5" transform="rotate(120 50 50)"/>
  <path d="M50 20 L52 45 L50 50 L48 45 Z" fill="#D4C5F4" stroke="white" stroke-width="1.5" transform="rotate(150 50 50)"/>
  <path d="M50 20 L52 45 L50 50 L48 45 Z" fill="#D4C5F4" stroke="white" stroke-width="1.5" transform="rotate(180 50 50)"/>
  <path d="M50 20 L52 45 L50 50 L48 45 Z" fill="#D4C5F4" stroke="white" stroke-width="1.5" transform="rotate(210 50 50)"/>
  <path d="M50 20 L52 45 L50 50 L48 45 Z" fill="#D4C5F4" stroke="white" stroke-width="1.5" transform="rotate(240 50 50)"/>
  <path d="M50 20 L52 45 L50 50 L48 45 Z" fill="#D4C5F4" stroke="white" stroke-width="1.5" transform="rotate(270 50 50)"/>
  <path d="M50 20 L52 45 L50 50 L48 45 Z" fill="#D4C5F4" stroke="white" stroke-width="1.5" transform="rotate(300 50 50)"/>
  <path d="M50 20 L52 45 L50 50 L48 45 Z" fill="#D4C5F4" stroke="white" stroke-width="1.5" transform="rotate(330 50 50)"/>
</svg>

