<svg width="100" height="100" viewBox="0 0 100 100" fill="none" xmlns="http://www.w3.org/2000/svg">
  <path d="M50 30 C40 20, 25 25, 25 40 C25 55, 50 75, 50 75 C50 75, 75 55, 75 40 C75 25, 60 20, 50 30 Z" fill="#B8A9E8" stroke="white" stroke-width="3"/>
  <path d="M50 30 C40 20, 25 25, 25 40 C25 55, 50 75, 50 75 C50 75, 75 55, 75 40 C75 25, 60 20, 50 30 Z" fill="#D4C5F4" stroke="white" stroke-width="2" transform="scale(0.7) translate(21 21)"/>
  <path d="M50 30 C40 20, 25 25, 25 40 C25 55, 50 75, 50 75 C50 75, 75 55, 75 40 C75 25, 60 20, 50 30 Z" fill="#8B7EC8" stroke="white" stroke-width="2" transform="scale(0.5) translate(50 50)"/>
</svg>

